<svg width="62" height="62" viewBox="0 0 62 62" fill="none" xmlns="http://www.w3.org/2000/svg">
<g id="Verified Icon">
<path id="BG" d="M36.9932 5.29171C33.6842 1.97942 28.3158 1.97942 25.0068 5.29171C23.444 6.85598 21.2687 7.64773 19.0661 7.45393C14.4022 7.04356 10.2897 10.4943 9.88395 15.1587C9.69232 17.3615 8.53486 19.3663 6.72299 20.6336C2.88642 23.3172 1.9542 28.6041 4.64156 32.438C5.9107 34.2486 6.31269 36.5284 5.73935 38.6638C4.52533 43.1857 7.20955 47.8349 11.7326 49.0444C13.8686 49.6157 15.642 51.1037 16.5754 53.1081C18.552 57.3524 23.5967 59.1885 27.839 57.2077C29.8425 56.2722 32.1575 56.2723 34.161 57.2077C38.4033 59.1885 43.448 57.3524 45.4245 53.1081C46.358 51.1037 48.1314 49.6157 50.2674 49.0444C54.7904 47.8349 57.4747 43.1857 56.2607 38.6638C55.6873 36.5284 56.0893 34.2486 57.3584 32.438C60.0458 28.6041 59.1136 23.3172 55.277 20.6336C53.4651 19.3663 52.3077 17.3615 52.1161 15.1587C51.7103 10.4943 47.5978 7.04356 42.9339 7.45393C40.7313 7.64773 38.556 6.85598 36.9932 5.29171Z" fill="#2E50FA" stroke="white"/>
<path id="Thick " d="M18 34.5L25.6789 42.1789C26.1112 42.6112 26.8268 42.5578 27.1902 42.0662L43.5 20" stroke="white" stroke-width="5" stroke-linecap="round"/>
</g>
</svg>
